<svg xmlns="http://www.w3.org/2000/svg" xmlns:xlink="http://www.w3.org/1999/xlink" viewBox="0 0 970 776.16"><defs><style>.cls-1{fill:url(#Безымянный_градиент_7);}.cls-2{fill:url(#Безымянный_градиент_9);}.cls-3{fill:url(#Безымянный_градиент_8);}.cls-4{fill:url(#Безымянный_градиент_6);}.cls-5,.cls-6,.cls-7{stroke:#000;stroke-miterlimit:10;}.cls-5{fill:url(#Безымянный_градиент_10);}.cls-6{fill:#f34555;}.cls-7{fill:#fff;stroke-width:6px;}</style><radialGradient id="Безымянный_градиент_7" cx="137.36" cy="338.96" r="127.62" gradientUnits="userSpaceOnUse"><stop offset="0.16" stop-color="#fda8ff"/><stop offset="0.47" stop-color="#fe99e2"/><stop offset="0.98" stop-color="#ff7bac"/></radialGradient><radialGradient id="Безымянный_градиент_9" cx="376.76" cy="163.53" fx="389.2018878756224" fy="192.9878031529309" r="109.93" gradientUnits="userSpaceOnUse"><stop offset="0.16" stop-color="#f7d4ff"/><stop offset="0.68" stop-color="#fddcff"/></radialGradient><radialGradient id="Безымянный_градиент_8" cx="863.16" cy="376.05" r="130.27" gradientUnits="userSpaceOnUse"><stop offset="0.08" stop-color="#f7d4ff"/><stop offset="0.29" stop-color="#fddcff"/></radialGradient><radialGradient id="Безымянный_градиент_6" cx="646.17" cy="204.12" fy="174.48611612500656" r="128.41" gradientUnits="userSpaceOnUse"><stop offset="0.22" stop-color="#fda8ff"/><stop offset="0.51" stop-color="#fe99e2"/><stop offset="0.98" stop-color="#ff7bac"/></radialGradient><radialGradient id="Безымянный_градиент_10" cx="508.46" cy="602.34" r="303.48" gradientUnits="userSpaceOnUse"><stop offset="0.16" stop-color="#f7d7ff"/><stop offset="0.3" stop-color="#f9c6f0"/><stop offset="0.59" stop-color="#fe99c7"/><stop offset="0.68" stop-color="#ff8bbb"/></radialGradient></defs><g id="Лапка"><path class="cls-1" d="M194.35,472.08c-15.78,0-35.78-8.87-66-22.31-37.73-16.74-65-28.83-87-59.51C31.83,377,12.08,349.48,16,313.41c5.37-49.43,50.85-76,65.79-84.75,25.9-15.14,51-22.81,74.63-22.81a98.56,98.56,0,0,1,41.64,9C228.6,229,244,254.84,250.45,269c14.41,31.61,8.91,58.78-1.08,108.12-10.57,52.2-16.39,80.95-39.29,91.55A36.55,36.55,0,0,1,194.35,472.08Z" transform="translate(-15 -67.65)"/><path d="M156.42,206.35a97.91,97.91,0,0,1,41.43,9c30.39,14.06,45.71,39.8,52.14,53.9,14.35,31.46,8.86,58.58-1.11,107.81-10.53,52-16.34,80.7-39,91.2a36.16,36.16,0,0,1-15.52,3.36c-15.67,0-35.63-8.86-65.85-22.27C90.84,432.61,63.64,420.54,41.72,390c-9.45-13.19-29.12-40.62-25.22-76.5,2.27-20.92,12.17-40.26,29.43-57.49,14-13.94,28.93-22.69,36.12-26.89a182.4,182.4,0,0,1,27.28-13.35c16.16-6.23,32-9.39,47.09-9.39h0m0-1c-35.73,0-65.85,17.6-74.88,22.88-14.19,8.3-60.64,35.44-66,85.13-3.93,36.26,16.18,64.32,25.41,77.19,22.08,30.79,50,43.2,87.18,59.68,30.88,13.7,50.38,22.35,66.26,22.35a37.16,37.16,0,0,0,15.94-3.45c23.13-10.71,29.06-40,39.57-91.91,9.87-48.73,15.53-76.67,1-108.43-4.84-10.62-20-39.28-52.63-54.39a98.68,98.68,0,0,0-41.85-9.05Z" transform="translate(-15 -67.65)"/><path class="cls-2" d="M411.15,340.06c-17.87,0-35.65-13.32-67.93-37.5-33-24.74-56.9-42.62-71.49-77.44-6.29-15-19.39-46.27-7.51-80.55,16.27-47,66.54-62.75,83.06-67.92,7.42-2.33,27.12-8.5,50.87-8.5,25.47,0,47.52,7.07,65.54,21,26.61,20.59,35.84,49.24,39,64.48,7,34-4.44,59.29-25.2,105.14-22,48.52-34.06,75.25-58.74,80.47A36.3,36.3,0,0,1,411.15,340.06Z" transform="translate(-15 -67.65)"/><path d="M398.16,68.65c25.35,0,47.29,7,65.22,20.91,26.49,20.49,35.67,49,38.79,64.18,7,33.87-4.45,59.08-25.16,104.84-21.9,48.37-34,75-58.4,80.18a35.92,35.92,0,0,1-7.46.8c-17.71,0-35.44-13.29-67.64-37.4-33-24.69-56.78-42.54-71.32-77.23-6.27-15-19.31-46.1-7.5-80.2,6.89-19.89,20.86-36.53,41.53-49.46C323,84.8,339.48,79.61,347.43,77.12c7.4-2.31,27.05-8.47,50.72-8.47h0m0-1c-23.82,0-43.7,6.22-51,8.52-15.69,4.92-67,21-83.39,68.23-11.93,34.47,1.41,66.31,7.53,80.91,14.64,34.95,39.12,53.29,71.64,77.65,32.15,24.07,50.2,37.6,68.24,37.6a36.65,36.65,0,0,0,7.67-.82c24.94-5.27,37.25-32.48,59.1-80.75,20.5-45.29,32.25-71.26,25.23-105.45-2.35-11.44-10.7-42.75-39.16-64.78-21.13-16.35-45-21.11-65.84-21.11Z" transform="translate(-15 -67.65)"/><path class="cls-3" d="M816.86,510.34a37.54,37.54,0,0,1-14.3-2.77C783,499.66,775.42,478.05,760.39,435c-13.6-39-23.43-67.12-16.1-104.15,3.16-16,9.74-49.22,38.73-71,15.9-12,35.45-18,58.12-18,21.62,0,40.6,5.63,48.7,8,59.25,17.58,81.43,50.68,89.61,75.35,10.59,31.94,2.26,60.86-3.64,75.25-13.19,32.14-36.77,46.72-79.59,73.19C860.42,495.72,836.78,510.34,816.86,510.34Z" transform="translate(-15 -67.65)"/><path d="M841.14,241.27v1c21.55,0,40.48,5.61,48.56,8,6.77,2,24.75,7.34,43.14,18.88,23.06,14.47,38.59,33.36,46.14,56.15,10.54,31.78,2.25,60.57-3.63,74.9-13.13,32-36.67,46.54-79.39,73-35.73,22.09-59.33,36.68-79.1,36.68a36.93,36.93,0,0,1-14.11-2.73c-19.38-7.83-26.9-29.37-41.89-72.28-13.57-38.89-23.38-67-16.08-103.9,3.15-15.91,9.7-49,38.54-70.73,15.81-11.9,35.26-17.93,57.82-17.93v-1m0,0c-18.82,0-39.88,4.17-58.42,18.13-29.15,21.94-35.85,55.81-38.92,71.34-7.35,37.17,2.73,66.05,16.12,104.42C775,478.41,782.57,500,802.38,508a38.15,38.15,0,0,0,14.48,2.8c20.06,0,43.53-14.52,79.62-36.83,42.29-26.14,66.54-41.13,79.79-73.42,4.43-10.8,15-41.44,3.66-75.6-18-54.33-76.15-71.58-89.95-75.67-8.44-2.5-27.15-8-48.84-8Z" transform="translate(-15 -67.65)"/><path class="cls-4" d="M606.31,339.1a37.36,37.36,0,0,1-12.16-2c-20-6.8-28.78-27.95-46.22-70.08-15.78-38.13-27.18-65.68-21.95-103.08,2-14.76,6.86-49.33,34.65-73.11,16.81-14.39,38.41-21.69,64.2-21.69,31.1,0,59.13,10.8,67,14.11,15.75,6.65,52.6,22.19,68.63,61.73,9.4,23.15,9.61,49.2.62,75.33C749.7,253.13,727,269,685.74,297.86,650.22,322.7,626.75,339.1,606.31,339.1Z" transform="translate(-15 -67.65)"/><path d="M624.84,69.63c31,0,58.95,10.77,66.8,14.08,15.67,6.61,52.38,22.1,68.34,61.45,9.35,23,9.56,49,.61,75-11.31,32.67-34,48.53-75.14,77.31C650,322.23,626.6,338.6,606.31,338.6a36.71,36.71,0,0,1-12-2c-19.82-6.72-28.54-27.8-45.91-69.79-15.75-38.06-27.13-65.56-21.93-102.82,2-14.71,6.84-49.14,34.48-72.8,16.72-14.31,38.21-21.56,63.88-21.57h0m0-1c-21.72,0-45.13,5.21-64.53,21.81-27.73,23.74-32.71,58.26-34.82,73.42-5.24,37.53,6.46,65.8,22,103.34C565,309.54,573.76,330.7,594,337.56a37.9,37.9,0,0,0,12.32,2c20.6,0,43.61-16.08,79.71-41.33,40.74-28.49,64.1-44.83,75.51-77.81,2.84-8.23,13.6-40.62-.63-75.68C744.79,105,707.75,89.42,692,82.78c-5.83-2.46-34.61-14.15-67.18-14.15Z" transform="translate(-15 -67.65)"/><path class="cls-5" d="M509.41,361.39c-57.28-.9-99.18,29.89-122.78,47.23-53.19,39.08-44.22,62.16-100.74,107-52.89,42-71.31,30.18-99.17,64.54-32.79,40.45-40.88,99.47-26.76,149.54,4.9,17.36,25.37,79.31,83.43,103.89,24.44,10.35,46,10,78.7,9.45,42.33-.77,76.06-9.74,103.89-17.32,53-14.44,61.57-24.57,92.88-23.61,24.47.75,35,7.43,63,15.74,11.11,3.3,78,23.2,133.8,15.74,9.76-1.3,110-16.13,140.09-96,26-68.91-17.28-141.63-55.09-176.3-35.49-32.53-55.55-21.46-100.74-63-42.12-38.67-34.14-56.95-74-89.72C612.71,397.77,569.63,362.34,509.41,361.39Z" transform="translate(-15 -67.65)"/></g><g id="КРЕСТ"><polygon class="cls-6" points="964 376.61 905.24 376.61 905.24 317.85 848.76 317.85 848.76 376.61 790 376.61 790 433.1 848.76 433.1 848.76 491.85 905.24 491.85 905.24 433.1 964 433.1 964 376.61"/></g><g id="CRM"><g id="vet"><path class="cls-7" d="M246.71,593.58v22l44.12,113.15L335,615.58v-22q0-8.25,4.2-13.46a14,14,0,0,1,21.71-.1q4.2,5.12,4.2,13.56v24.94a22.62,22.62,0,0,1-.52,4.92,30.25,30.25,0,0,1-1.58,4.91l-47.45,122q-3.33,8.45-6.83,11.49a12.61,12.61,0,0,1-8.58,3H281.55a12.49,12.49,0,0,1-8.58-3q-3.32-2.94-6.82-11.59L218.7,628.54a27.91,27.91,0,0,1-1.67-5.1,25,25,0,0,1-.44-4.92V593.58q0-8.66,4.12-13.66a14.18,14.18,0,0,1,21.8.2Q246.71,585.33,246.71,593.58Z" transform="translate(-15 -67.65)"/><path class="cls-7" d="M495.69,574.91H529a39.24,39.24,0,0,1,15,3.05,46.84,46.84,0,0,1,13.74,8.74l13,11.59a49.71,49.71,0,0,1,11.73,17.29A54.71,54.71,0,0,1,586.74,637v40.27A16.53,16.53,0,0,1,582,689.34a16.21,16.21,0,0,1-12.08,4.82H468.38V703a16.58,16.58,0,0,0,1.49,6.87,15.61,15.61,0,0,0,3.94,5.5l12.78,12.18a15.72,15.72,0,0,0,4.29,2.65,13.69,13.69,0,0,0,5.16.89h73.89q7.53,0,12.17,4.71A16.66,16.66,0,0,1,586.74,748a16.18,16.18,0,0,1-16.81,16.9H495.69a38.51,38.51,0,0,1-14.71-3,48.69,48.69,0,0,1-13.65-8.64l-13-12.18A47.9,47.9,0,0,1,442.55,724a53.8,53.8,0,0,1-4.29-21V637a55.71,55.71,0,0,1,4.29-21.41,47.58,47.58,0,0,1,11.82-17.29l13-11.59A46.7,46.7,0,0,1,481,577.86,38.51,38.51,0,0,1,495.69,574.91Zm.35,33.4a11.12,11.12,0,0,0-4.64,1.08,23.59,23.59,0,0,0-4.81,3l-12.78,12a15.48,15.48,0,0,0-3.94,5.6,17.24,17.24,0,0,0-1.49,7v22.79h88.24V637a17.24,17.24,0,0,0-1.49-7,14.69,14.69,0,0,0-3.76-5.41l-13.13-12.18a20.08,20.08,0,0,0-4.64-3,11.15,11.15,0,0,0-4.64-1.08Z" transform="translate(-15 -67.65)"/><path class="cls-7" d="M719.81,536.8v38.11h57.08q7.53,0,12.17,4.72A18.18,18.18,0,0,1,789,604a16.39,16.39,0,0,1-12.08,4.71H719.81V715a16.62,16.62,0,0,0,4.11,11.49,13.18,13.18,0,0,0,10.25,4.62h29.76a12.78,12.78,0,0,0,8.41-3.05,18.89,18.89,0,0,0,5.6-8.74c.12-.39.41-1.31.88-2.75q4-13.95,14.53-13.95a13.47,13.47,0,0,1,10.42,4.82,16.19,16.19,0,0,1,4.29,11.1q0,17.47-13.31,31.92t-31.17,14.44H734.17q-18.57,0-31.69-14.84t-13.14-35.45V608.7h-12.6q-7.71,0-12.26-4.61t-4.55-12.28a16.5,16.5,0,0,1,4.73-12.08,16.19,16.19,0,0,1,12.08-4.82h12.6V536.8q0-8.64,4.12-13.55a13.56,13.56,0,0,1,10.94-4.91,13.89,13.89,0,0,1,11,5.11Q719.81,528.55,719.81,536.8Z" transform="translate(-15 -67.65)"/></g></g></svg>